<?xml version="1.0" standalone="no"?>
<!DOCTYPE svg PUBLIC "-//W3C//DTD SVG 20010904//EN"
 "http://www.w3.org/TR/2001/REC-SVG-20010904/DTD/svg10.dtd">
<svg version="1.0" xmlns="http://www.w3.org/2000/svg"
 width="837.000000pt" height="345.000000pt" viewBox="0 0 837.000000 345.000000"
 preserveAspectRatio="xMidYMid meet">

<g transform="translate(0.000000,345.000000) scale(0.100000,-0.100000)"
fill="#000000" stroke="none">
<path d="M4029 3264 c-11 -14 -10 -18 6 -30 10 -8 25 -14 33 -14 7 0 10 -5 6
-11 -3 -6 -17 -8 -33 -4 -19 5 -23 4 -15 -5 16 -17 58 -8 62 12 2 12 -5 19
-22 24 -14 3 -26 11 -26 16 0 6 11 7 27 3 23 -5 25 -4 14 9 -17 20 -35 20 -52
0z"/>
<path d="M4252 3235 c-1 -33 1 -45 7 -36 8 13 12 13 27 0 16 -13 16 -12 5 9
-10 19 -10 27 1 40 10 14 8 13 -9 -1 -21 -19 -22 -18 -26 10 -2 17 -5 8 -5
-22z"/>
<path d="M142 3258 c-28 -28 -4 -84 34 -76 29 5 26 24 -3 23 -21 0 -28 5 -28
20 0 15 7 20 28 20 15 -1 26 4 24 10 -5 15 -40 18 -55 3z"/>
<path d="M244 3234 c-8 -20 -13 -41 -10 -47 3 -9 5 -8 5 1 1 14 51 17 51 2 0
-5 4 -10 9 -10 5 0 1 20 -8 45 -9 25 -19 45 -24 45 -4 0 -15 -16 -23 -36z m30
1 c3 -9 0 -15 -9 -15 -9 0 -12 6 -9 15 4 8 7 15 9 15 2 0 5 -7 9 -15z"/>
<path d="M332 3228 c-2 -47 -1 -48 28 -48 17 0 30 5 30 10 0 6 -11 10 -24 10
-21 0 -25 5 -29 38 -3 34 -4 33 -5 -10z"/>
<path d="M412 3228 c-2 -47 -1 -48 28 -48 17 0 30 5 30 10 0 6 -11 10 -24 10
-21 0 -25 5 -29 38 -3 34 -4 33 -5 -10z"/>
<path d="M4110 3230 c0 -32 4 -40 18 -39 10 0 12 3 5 6 -15 6 -17 43 -3 43 15
0 12 17 -5 24 -12 4 -15 -3 -15 -34z"/>
<path d="M8021 3223 c0 -39 2 -44 9 -25 6 13 18 22 30 22 34 0 23 44 -12 48
-27 3 -28 2 -27 -45z m49 17 c0 -5 -9 -10 -20 -10 -11 0 -20 5 -20 10 0 6 9
10 20 10 11 0 20 -4 20 -10z"/>
<path d="M8114 3230 c1 -39 4 -45 25 -48 13 -2 28 2 32 10 12 18 11 78 -1 78
-5 0 -10 -16 -10 -35 0 -28 -4 -35 -19 -35 -15 0 -21 9 -24 38 -4 32 -4 31 -3
-8z"/>
<path d="M8200 3260 c0 -5 6 -10 14 -10 10 0 16 -13 19 -37 l4 -38 1 38 c1 25
7 37 17 37 8 0 15 5 15 10 0 6 -16 10 -35 10 -19 0 -35 -4 -35 -10z"/>
<path d="M4161 3221 c2 -30 3 -32 6 -8 2 15 9 27 14 27 5 0 9 4 9 8 0 5 -7 9
-15 9 -11 0 -15 -10 -14 -36z"/>
<path d="M4213 3225 c0 -22 2 -30 4 -17 2 12 2 30 0 40 -3 9 -5 -1 -4 -23z"/>
<path d="M4331 3246 c-19 -23 -9 -51 19 -53 l25 -2 -25 9 -25 8 23 7 c13 5 22
14 20 23 -4 22 -23 25 -37 8z m26 -12 c-3 -3 -12 -4 -19 -1 -8 3 -5 6 6 6 11
1 17 -2 13 -5z"/>
<path d="M3610 2900 c0 -47 4 -80 10 -80 6 0 10 33 10 80 0 47 -4 80 -10 80
-6 0 -10 -33 -10 -80z"/>
<path d="M4760 2900 l0 -80 310 0 310 0 0 80 0 80 -310 0 -310 0 0 -80z"/>
<path d="M4040 2935 c-8 -9 -9 -15 -2 -15 6 0 13 -17 15 -37 3 -31 4 -29 5 15
2 57 1 60 -18 37z"/>
<path d="M4100 2941 c0 -4 11 -6 25 -3 14 2 25 6 25 8 0 2 -11 4 -25 4 -14 0
-25 -4 -25 -9z"/>
<path d="M4256 2941 c-3 -5 2 -8 12 -7 13 1 17 -7 17 -34 0 -28 -4 -35 -19
-33 -13 1 -15 -2 -7 -10 16 -16 41 10 41 42 0 37 -30 66 -44 42z"/>
<path d="M4332 2938 c-7 -7 -12 -16 -12 -22 0 -5 7 -1 15 10 13 16 16 17 26 4
9 -12 10 -12 7 -1 -6 20 -21 24 -36 9z"/>
<path d="M4210 2926 c0 -8 -5 -16 -12 -18 -8 -3 -7 -6 3 -10 10 -4 15 1 17 18
1 13 0 24 -3 24 -3 0 -5 -6 -5 -14z"/>
<path d="M4105 2911 c-3 -7 0 -8 9 -5 19 7 33 -23 18 -38 -8 -8 -16 -7 -29 2
-17 13 -17 13 0 -5 16 -18 18 -18 34 -2 13 13 15 21 7 34 -13 21 -30 27 -39
14z"/>
<path d="M4242 2900 c0 -14 2 -19 5 -12 2 6 2 18 0 25 -3 6 -5 1 -5 -13z"/>
<path d="M4366 2885 c-7 -29 -21 -32 -35 -7 -6 9 -11 12 -11 6 0 -6 7 -18 16
-25 14 -11 18 -10 30 6 8 10 14 25 14 32 0 21 -7 15 -14 -12z"/>
<path d="M4170 2872 c0 -18 29 -27 43 -13 9 9 8 11 -7 5 -11 -4 -21 -2 -27 7
-6 10 -9 11 -9 1z"/>
<path d="M3633 2670 c0 -47 2 -66 4 -42 2 23 2 61 0 85 -2 23 -4 4 -4 -43z"/>
<path d="M4760 2670 l0 -80 55 0 55 0 0 80 0 80 -55 0 -55 0 0 -80z"/>
<path d="M4039 2703 c-8 -10 -9 -14 -2 -10 8 5 13 -5 16 -30 3 -35 4 -34 5 10
2 52 1 55 -19 30z"/>
<path d="M4100 2711 c0 -4 11 -6 25 -3 14 2 25 6 25 8 0 2 -11 4 -25 4 -14 0
-25 -4 -25 -9z"/>
<path d="M4175 2710 c-4 -6 -4 -14 -1 -17 3 -4 6 -1 6 5 0 7 7 12 16 12 11 0
15 -6 11 -20 -3 -11 -2 -22 2 -25 5 -2 8 8 7 23 -1 28 -28 43 -41 22z"/>
<path d="M4251 2693 c1 -23 2 -24 6 -6 2 13 13 24 26 26 18 4 17 5 -5 6 -24 1
-28 -3 -27 -26z"/>
<path d="M4354 2704 c9 -8 16 -23 17 -32 0 -10 3 -12 5 -5 7 15 -13 53 -27 53
-6 0 -3 -7 5 -16z"/>
<path d="M4105 2680 c-3 -6 1 -7 9 -4 18 7 21 14 7 14 -6 0 -13 -4 -16 -10z"/>
<path d="M4280 2683 c14 -7 13 -36 -2 -53 -11 -12 -10 -12 5 0 20 15 19 52 -1
56 -7 1 -8 0 -2 -3z"/>
<path d="M4138 2657 c-3 -19 -2 -25 4 -19 6 6 8 18 6 28 -3 14 -5 12 -10 -9z"/>
<path d="M4320 2653 c0 -6 8 -17 18 -24 16 -13 16 -13 2 6 -8 11 -16 22 -17
24 -2 2 -3 0 -3 -6z"/>
<path d="M4170 2641 c0 -5 7 -12 16 -15 14 -5 15 -4 4 9 -14 17 -20 19 -20 6z"/>
<path d="M3610 2440 c0 -47 4 -80 10 -80 6 0 10 33 10 80 0 47 -4 80 -10 80
-6 0 -10 -33 -10 -80z"/>
<path d="M4760 2440 l0 -80 320 0 320 0 0 80 0 80 -320 0 -320 0 0 -80z"/>
<path d="M4039 2473 c-8 -10 -9 -14 -2 -10 8 5 13 -5 16 -30 3 -35 4 -34 5 10
2 52 1 55 -19 30z"/>
<path d="M4100 2481 c0 -4 11 -6 25 -3 14 2 25 6 25 8 0 2 -11 4 -25 4 -14 0
-25 -4 -25 -9z"/>
<path d="M4255 2480 c-3 -6 1 -7 9 -4 18 7 21 14 7 14 -6 0 -13 -4 -16 -10z"/>
<path d="M4330 2486 c0 -2 9 -6 20 -9 11 -3 18 -1 14 4 -5 9 -34 13 -34 5z"/>
<path d="M4289 2438 c-3 -22 -1 -34 4 -29 5 5 7 21 5 37 -3 27 -4 26 -9 -8z"/>
<path d="M4129 2452 c8 -6 12 -19 8 -32 -4 -16 -3 -20 4 -13 15 15 7 45 -11
50 -12 4 -13 3 -1 -5z"/>
<path d="M4240 2444 c0 -10 5 -26 10 -34 8 -11 9 -7 4 15 -8 37 -14 45 -14 19z"/>
<path d="M4371 2444 c0 -11 3 -14 6 -6 3 7 2 16 -1 19 -3 4 -6 -2 -5 -13z"/>
<path d="M4183 2423 c9 -2 23 -2 30 0 6 3 -1 5 -18 5 -16 0 -22 -2 -12 -5z"/>
<path d="M4320 2421 c0 -6 4 -13 10 -16 6 -3 7 1 4 9 -7 18 -14 21 -14 7z"/>
<path d="M4355 2410 c-3 -5 -1 -10 4 -10 6 0 11 5 11 10 0 6 -2 10 -4 10 -3 0
-8 -4 -11 -10z"/>
<path d="M4760 2210 l0 -80 50 0 50 0 0 80 0 80 -50 0 -50 0 0 -80z"/>
<path d="M4039 2243 c-8 -10 -9 -14 -2 -10 8 5 13 -5 16 -30 3 -35 4 -34 5 10
2 52 1 55 -19 30z"/>
<path d="M4100 2251 c0 -4 11 -6 25 -3 14 2 25 6 25 8 0 2 -11 4 -25 4 -14 0
-25 -4 -25 -9z"/>
<path d="M4195 2250 c-3 -5 -1 -10 4 -10 6 0 11 5 11 10 0 6 -2 10 -4 10 -3 0
-8 -4 -11 -10z"/>
<path d="M4251 2238 c1 -16 3 -18 6 -6 2 9 12 19 21 21 12 3 10 5 -5 6 -18 1
-23 -4 -22 -21z"/>
<path d="M4325 2249 c-4 -6 -4 -13 -1 -16 3 -4 6 -1 6 6 0 8 8 11 20 8 11 -3
18 -1 14 4 -7 12 -31 11 -39 -2z"/>
<path d="M4129 2222 c8 -6 12 -19 8 -32 -4 -16 -3 -20 4 -13 15 15 7 45 -11
50 -12 4 -13 3 -1 -5z"/>
<path d="M4285 2200 c0 -15 3 -26 8 -23 4 2 7 13 7 23 0 10 -3 21 -7 23 -5 3
-8 -8 -8 -23z"/>
<path d="M4371 2214 c0 -11 3 -14 6 -6 3 7 2 16 -1 19 -3 4 -6 -2 -5 -13z"/>
<path d="M4200 2200 c0 -5 5 -10 11 -10 5 0 7 5 4 10 -3 6 -8 10 -11 10 -2 0
-4 -4 -4 -10z"/>
<path d="M4320 2191 c0 -6 4 -13 10 -16 6 -3 7 1 4 9 -7 18 -14 21 -14 7z"/>
<path d="M4250 2180 c0 -5 5 -10 11 -10 5 0 7 5 4 10 -3 6 -8 10 -11 10 -2 0
-4 -4 -4 -10z"/>
<path d="M3400 1975 l0 -75 115 0 115 0 0 75 0 75 -115 0 -115 0 0 -75z"/>
<path d="M4760 1975 l0 -75 485 0 485 0 0 75 0 75 -485 0 -485 0 0 -75z"/>
<path d="M4040 2010 c-9 -6 -10 -10 -3 -10 6 0 14 -17 16 -37 3 -35 4 -34 5
10 1 26 1 47 0 47 -2 0 -10 -5 -18 -10z"/>
<path d="M4246 2005 c-3 -9 -6 -24 -5 -33 0 -9 5 -4 10 12 9 32 6 48 -5 21z"/>
<path d="M4289 1982 c5 -34 6 -35 9 -8 2 16 0 32 -5 37 -5 5 -7 -7 -4 -29z"/>
<path d="M4325 2009 c-4 -6 -5 -12 -2 -15 2 -3 7 2 10 11 7 17 1 20 -8 4z"/>
<path d="M4355 2010 c3 -5 8 -10 11 -10 2 0 4 5 4 10 0 6 -5 10 -11 10 -5 0
-7 -4 -4 -10z"/>
<path d="M4131 1983 c18 -30 -1 -53 -28 -33 -17 13 -17 13 -1 -5 14 -15 20
-16 32 -5 21 16 20 34 -1 51 -15 13 -15 12 -2 -8z"/>
<path d="M4170 1988 c0 -4 4 -8 9 -8 6 0 12 4 15 8 3 5 -1 9 -9 9 -8 0 -15 -4
-15 -9z"/>
<path d="M4371 1974 c0 -11 3 -14 6 -6 3 7 2 16 -1 19 -3 4 -6 -2 -5 -13z"/>
<path d="M4170 1952 c0 -18 29 -27 43 -13 9 9 8 11 -7 5 -11 -4 -21 -2 -27 7
-6 10 -9 11 -9 1z"/>
<path d="M4257 1939 c7 -7 15 -10 18 -7 3 3 -2 9 -12 12 -14 6 -15 5 -6 -5z"/>
<path d="M4345 1940 c-16 -7 -17 -9 -3 -9 9 -1 20 4 23 9 7 11 7 11 -20 0z"/>
<path d="M3610 1750 c0 -47 4 -80 10 -80 6 0 10 33 10 80 0 47 -4 80 -10 80
-6 0 -10 -33 -10 -80z"/>
<path d="M4760 1750 l0 -80 75 0 75 0 0 80 0 80 -75 0 -75 0 0 -80z"/>
<path d="M4040 1785 c-8 -9 -9 -15 -2 -15 6 0 13 -17 15 -37 3 -31 4 -29 5 15
2 57 1 60 -18 37z"/>
<path d="M4100 1791 c0 -4 11 -6 25 -3 14 2 25 6 25 8 0 2 -11 4 -25 4 -14 0
-25 -4 -25 -9z"/>
<path d="M4175 1779 c-4 -11 -4 -23 -1 -26 3 -4 6 1 6 11 0 9 10 21 23 26 l22
9 -22 0 c-13 1 -24 -7 -28 -20z"/>
<path d="M4251 1773 c1 -23 2 -24 6 -6 2 12 12 24 21 26 12 3 10 5 -5 6 -19 1
-23 -4 -22 -26z"/>
<path d="M4332 1788 c-7 -7 -12 -16 -12 -22 0 -5 7 -1 15 10 13 16 16 17 26 4
9 -12 10 -12 7 -1 -6 20 -21 24 -36 9z"/>
<path d="M4105 1761 c-3 -7 0 -8 9 -5 19 7 33 -23 18 -38 -8 -8 -16 -7 -29 2
-17 13 -17 13 0 -5 16 -18 18 -18 34 -2 13 13 15 21 7 34 -13 21 -30 27 -39
14z"/>
<path d="M4190 1766 c0 -2 7 -7 16 -10 8 -3 12 -2 9 4 -6 10 -25 14 -25 6z"/>
<path d="M4270 1766 c0 -2 8 -10 18 -17 15 -13 16 -12 3 4 -13 16 -21 21 -21
13z"/>
<path d="M4366 1735 c-7 -29 -21 -32 -35 -7 -6 9 -11 12 -11 6 0 -6 7 -18 16
-25 14 -11 18 -10 30 6 8 10 14 25 14 32 0 21 -7 15 -14 -12z"/>
<path d="M4170 1722 c0 -18 29 -27 43 -13 9 9 8 11 -7 5 -11 -4 -21 -2 -27 7
-6 10 -9 11 -9 1z"/>
<path d="M4253 1715 c17 -19 17 -19 35 0 16 18 16 18 0 6 -15 -11 -21 -11 -35
0 -17 12 -17 12 0 -6z"/>
<path d="M3440 1520 l0 -80 95 0 95 0 0 80 0 80 -95 0 -95 0 0 -80z"/>
<path d="M4760 1520 l0 -80 200 0 200 0 0 80 0 80 -200 0 -200 0 0 -80z"/>
<path d="M4039 1553 c-8 -10 -9 -14 -2 -10 8 5 13 -5 16 -30 3 -35 4 -34 5 10
2 52 1 55 -19 30z"/>
<path d="M4100 1561 c0 -4 11 -6 25 -3 14 2 25 6 25 8 0 2 -11 4 -25 4 -14 0
-25 -4 -25 -9z"/>
<path d="M4190 1566 c0 -2 7 -7 16 -10 8 -3 12 -2 9 4 -6 10 -25 14 -25 6z"/>
<path d="M4256 1561 c-3 -5 2 -8 12 -7 22 1 29 -48 10 -72 -12 -15 -11 -16 5
-3 9 7 17 25 17 40 0 37 -30 66 -44 42z"/>
<path d="M4354 1554 c9 -8 16 -23 17 -32 0 -10 3 -12 5 -5 7 15 -13 53 -27 53
-6 0 -3 -7 5 -16z"/>
<path d="M4171 1524 c0 -20 6 -37 17 -45 15 -12 15 -12 5 1 -6 8 -13 29 -16
45 l-4 30 -2 -31z"/>
<path d="M4105 1530 c-3 -6 1 -7 9 -4 18 7 21 14 7 14 -6 0 -13 -4 -16 -10z"/>
<path d="M4190 1536 c0 -2 7 -7 16 -10 8 -3 12 -2 9 4 -6 10 -25 14 -25 6z"/>
<path d="M4242 1520 c0 -14 2 -19 5 -12 2 6 2 18 0 25 -3 6 -5 1 -5 -13z"/>
<path d="M4139 1510 c-3 -17 -10 -24 -23 -23 -13 1 -15 -2 -7 -10 15 -15 44
14 39 39 -4 15 -5 14 -9 -6z"/>
<path d="M4320 1503 c0 -6 8 -17 18 -24 16 -13 16 -13 2 6 -8 11 -16 22 -17
24 -2 2 -3 0 -3 -6z"/>
<path d="M3600 1290 c0 -64 3 -80 15 -80 12 0 15 16 15 80 0 64 -3 80 -15 80
-12 0 -15 -16 -15 -80z"/>
<path d="M4760 1290 c0 -79 0 -80 25 -80 25 0 25 1 25 80 0 79 0 80 -25 80
-25 0 -25 -1 -25 -80z"/>
<path d="M4039 1323 c-8 -10 -9 -14 -2 -10 8 5 13 -5 16 -30 3 -35 4 -34 5 10
2 52 1 55 -19 30z"/>
<path d="M4100 1331 c0 -4 11 -6 25 -3 14 2 25 6 25 8 0 2 -11 4 -25 4 -14 0
-25 -4 -25 -9z"/>
<path d="M4190 1336 c0 -2 7 -7 16 -10 8 -3 12 -2 9 4 -6 10 -25 14 -25 6z"/>
<path d="M4251 1313 c1 -23 2 -24 6 -6 2 12 12 24 21 26 12 3 10 5 -5 6 -19 1
-23 -4 -22 -26z"/>
<path d="M4330 1336 c0 -2 9 -6 20 -9 11 -3 18 -1 14 4 -5 9 -34 13 -34 5z"/>
<path d="M4170 1296 c0 -19 3 -37 8 -40 4 -2 6 13 4 35 -5 48 -12 51 -12 5z"/>
<path d="M4129 1302 c8 -6 12 -19 8 -32 -4 -16 -3 -20 4 -13 15 15 7 45 -11
50 -12 4 -13 3 -1 -5z"/>
<path d="M4190 1306 c0 -2 7 -7 16 -10 8 -3 12 -2 9 4 -6 10 -25 14 -25 6z"/>
<path d="M4279 1302 c8 -6 12 -19 8 -32 -4 -16 -3 -20 4 -13 15 15 7 45 -11
50 -12 4 -13 3 -1 -5z"/>
<path d="M4371 1294 c0 -11 3 -14 6 -6 3 7 2 16 -1 19 -3 4 -6 -2 -5 -13z"/>
<path d="M4320 1271 c0 -6 4 -13 10 -16 6 -3 7 1 4 9 -7 18 -14 21 -14 7z"/>
<path d="M4355 1260 c-3 -5 -1 -10 4 -10 6 0 11 5 11 10 0 6 -2 10 -4 10 -3 0
-8 -4 -11 -10z"/>
<path d="M2720 1050 l0 -80 455 0 455 0 0 80 0 80 -455 0 -455 0 0 -80z"/>
<path d="M4760 1050 l0 -80 390 0 390 0 0 80 0 80 -390 0 -390 0 0 -80z"/>
<path d="M4048 1093 c-2 -5 -1 -26 3 -48 l6 -40 2 48 c1 44 -3 57 -11 40z"/>
<path d="M4244 1075 c-4 -14 -4 -29 0 -32 3 -4 6 3 6 13 0 11 5 25 12 32 9 9
9 12 0 12 -6 0 -14 -11 -18 -25z"/>
<path d="M4289 1062 c5 -34 6 -35 9 -8 2 16 0 32 -5 37 -5 5 -7 -7 -4 -29z"/>
<path d="M4325 1089 c-4 -6 -5 -12 -2 -15 2 -3 7 2 10 11 7 17 1 20 -8 4z"/>
<path d="M4355 1090 c3 -5 8 -10 11 -10 2 0 4 5 4 10 0 6 -5 10 -11 10 -5 0
-7 -4 -4 -10z"/>
<path d="M4138 1043 c5 -21 7 -23 10 -9 2 10 0 22 -6 28 -6 6 -7 0 -4 -19z"/>
<path d="M4371 1054 c0 -11 3 -14 6 -6 3 7 2 16 -1 19 -3 4 -6 -2 -5 -13z"/>
<path d="M4320 1032 c0 -18 29 -27 43 -13 9 9 8 11 -7 5 -11 -4 -21 -2 -27 7
-6 10 -9 11 -9 1z"/>
<path d="M4258 1018 c5 -5 16 -8 23 -6 8 3 3 7 -10 11 -17 4 -21 3 -13 -5z"/>
<path d="M3210 825 l0 -75 210 0 210 0 0 75 0 75 -210 0 -210 0 0 -75z"/>
<path d="M4760 825 l0 -75 195 0 195 0 0 75 0 75 -195 0 -195 0 0 -75z"/>
<path d="M4040 860 c-9 -6 -10 -10 -3 -10 6 0 14 -17 16 -37 3 -35 4 -34 5 10
1 26 1 47 0 47 -2 0 -10 -5 -18 -10z"/>
<path d="M4252 850 c0 -14 2 -19 5 -12 2 6 2 18 0 25 -3 6 -5 1 -5 -13z"/>
<path d="M4325 859 c-4 -6 -5 -12 -2 -15 2 -3 7 2 10 11 7 17 1 20 -8 4z"/>
<path d="M4355 860 c3 -5 8 -10 11 -10 2 0 4 5 4 10 0 6 -5 10 -11 10 -5 0 -7
-4 -4 -10z"/>
<path d="M4132 828 c7 -15 15 -23 17 -17 2 6 -4 18 -13 27 -15 15 -15 15 -4
-10z"/>
<path d="M4193 835 c-3 -9 -3 -18 -1 -21 3 -3 8 4 11 16 6 23 -1 27 -10 5z"/>
<path d="M4282 828 c7 -15 15 -23 17 -17 2 6 -4 18 -13 27 -15 15 -15 15 -4
-10z"/>
<path d="M4371 824 c0 -11 3 -14 6 -6 3 7 2 16 -1 19 -3 4 -6 -2 -5 -13z"/>
<path d="M4102 794 c10 -10 20 -16 22 -13 3 3 -5 11 -17 18 -21 13 -21 12 -5
-5z"/>
<path d="M4252 794 c10 -10 20 -16 22 -13 3 3 -5 11 -17 18 -21 13 -21 12 -5
-5z"/>
<path d="M4345 790 c-16 -7 -17 -9 -3 -9 9 -1 20 4 23 9 7 11 7 11 -20 0z"/>
<path d="M1030 595 l0 -75 1300 0 1300 0 0 75 0 75 -1300 0 -1300 0 0 -75z"/>
<path d="M4760 595 l0 -75 340 0 340 0 0 75 0 75 -340 0 -340 0 0 -75z"/>
<path d="M4040 635 c-8 -9 -9 -15 -2 -15 6 0 13 -17 15 -37 3 -31 4 -29 5 15
2 57 1 60 -18 37z"/>
<path d="M4106 641 c-3 -4 6 -6 19 -3 14 2 25 6 25 8 0 8 -39 4 -44 -5z"/>
<path d="M4184 642 c-18 -11 -16 -82 2 -89 8 -3 20 -1 26 5 8 8 5 9 -11 5 -17
-4 -21 -1 -21 17 0 17 5 21 18 17 15 -3 19 1 18 21 -1 27 -14 37 -32 24z m26
-17 c0 -8 -7 -15 -15 -15 -16 0 -20 12 -8 23 11 12 23 8 23 -8z"/>
<path d="M4256 641 c-3 -5 2 -8 12 -7 13 1 17 -7 17 -34 0 -28 -4 -35 -19 -33
-13 1 -15 -2 -7 -10 16 -16 41 10 41 42 0 37 -30 66 -44 42z"/>
<path d="M4332 638 c-7 -7 -12 -16 -12 -22 0 -5 7 -1 15 10 13 16 16 17 26 4
9 -12 10 -12 7 -1 -6 20 -21 24 -36 9z"/>
<path d="M4131 603 c18 -30 -1 -53 -28 -33 -17 13 -17 13 -1 -5 14 -15 20 -16
32 -5 21 16 20 34 -1 51 -15 13 -15 12 -2 -8z"/>
<path d="M4242 600 c0 -14 2 -19 5 -12 2 6 2 18 0 25 -3 6 -5 1 -5 -13z"/>
<path d="M4366 585 c-7 -29 -21 -32 -35 -7 -6 9 -11 12 -11 6 0 -6 7 -18 16
-25 14 -11 18 -10 30 6 8 10 14 25 14 32 0 21 -7 15 -14 -12z"/>
<path d="M3040 370 l0 -80 295 0 295 0 0 80 0 80 -295 0 -295 0 0 -80z"/>
<path d="M4760 370 l0 -80 45 0 45 0 0 80 0 80 -45 0 -45 0 0 -80z"/>
<path d="M4039 403 c-8 -10 -9 -14 -2 -10 8 5 13 -6 16 -35 3 -41 4 -41 5 10
1 28 0 52 -2 52 -2 0 -10 -8 -17 -17z"/>
<path d="M4100 411 c0 -4 11 -6 25 -3 14 2 25 6 25 8 0 2 -11 4 -25 4 -14 0
-25 -4 -25 -9z"/>
<path d="M4177 413 c-2 -4 -5 -24 -5 -45 -1 -26 4 -38 16 -43 14 -5 15 -4 5 6
-20 20 -16 42 5 36 15 -3 19 1 18 22 -1 25 -29 42 -39 24z m33 -18 c0 -8 -7
-15 -15 -15 -8 0 -15 7 -15 15 0 8 7 15 15 15 8 0 15 -7 15 -15z"/>
<path d="M4251 393 c1 -23 2 -24 6 -6 2 13 13 24 26 26 18 4 17 5 -5 6 -24 1
-28 -3 -27 -26z"/>
<path d="M4354 404 c9 -8 16 -23 17 -32 0 -10 3 -12 5 -5 7 15 -13 53 -27 53
-6 0 -3 -7 5 -16z"/>
<path d="M4105 380 c-3 -6 1 -7 9 -4 18 7 21 14 7 14 -6 0 -13 -4 -16 -10z"/>
<path d="M4280 383 c13 -6 13 -40 0 -48 -6 -4 -19 -1 -28 6 -16 12 -16 12 0
-6 14 -15 19 -16 33 -5 18 15 16 52 -3 56 -7 1 -8 0 -2 -3z"/>
<path d="M4141 363 c-1 -29 -18 -38 -39 -22 -15 12 -15 11 1 -6 16 -18 18 -18
33 -3 9 8 14 24 11 34 -4 16 -5 16 -6 -3z"/>
<path d="M4320 353 c0 -6 8 -17 18 -24 16 -13 16 -13 2 6 -8 11 -16 22 -17 24
-2 2 -3 0 -3 -6z"/>
<path d="M1990 130 l0 -80 820 0 820 0 0 80 0 80 -820 0 -820 0 0 -80z"/>
<path d="M4760 130 l0 -80 260 0 260 0 0 80 0 80 -260 0 -260 0 0 -80z"/>
<path d="M4039 163 c-8 -10 -9 -14 -2 -10 8 5 13 -5 16 -30 3 -35 4 -34 5 10
2 52 1 55 -19 30z"/>
<path d="M4100 171 c0 -5 9 -7 20 -4 11 3 20 7 20 9 0 2 -9 4 -20 4 -11 0 -20
-4 -20 -9z"/>
<path d="M4177 173 c-9 -9 -9 -43 1 -43 4 0 7 11 7 25 0 14 0 25 -1 25 0 0 -4
-3 -7 -7z"/>
<path d="M4252 168 c-26 -26 -7 -79 28 -77 9 0 6 4 -7 9 -25 10 -31 48 -11 68
7 7 10 12 7 12 -3 0 -10 -5 -17 -12z"/>
<path d="M4289 142 c5 -34 6 -35 9 -8 2 16 0 32 -5 37 -5 5 -7 -7 -4 -29z"/>
<path d="M4325 169 c-4 -6 -5 -12 -2 -15 2 -3 7 2 10 11 7 17 1 20 -8 4z"/>
<path d="M4135 120 c0 -15 3 -26 8 -23 4 2 7 13 7 23 0 10 -3 21 -7 23 -5 3
-8 -8 -8 -23z"/>
<path d="M4371 134 c0 -11 3 -14 6 -6 3 7 2 16 -1 19 -3 4 -6 -2 -5 -13z"/>
<path d="M4320 111 c0 -6 4 -13 10 -16 6 -3 7 1 4 9 -7 18 -14 21 -14 7z"/>
</g>
</svg>
